<svg width="27" height="27" viewBox="0 0 27 27" fill="none" xmlns="http://www.w3.org/2000/svg">
<circle cx="13.4388" cy="13.1463" r="12.7081" stroke="white" stroke-opacity="0.5" stroke-width="0.876404"/>
<path fill-rule="evenodd" clip-rule="evenodd" d="M12.6888 7.99852C13.3135 7.35928 14.1608 7.00011 15.0443 7H16.7576C16.8838 7 17.0049 7.0513 17.0941 7.14262C17.1834 7.23393 17.2335 7.35778 17.2335 7.48692V9.82415C17.2335 9.95329 17.1834 10.0771 17.0941 10.1685C17.0049 10.2598 16.8838 10.3111 16.7576 10.3111H15.0443C15.0318 10.3111 15.0194 10.3136 15.0079 10.3185C14.9963 10.3234 14.9858 10.3306 14.977 10.3396C14.9681 10.3486 14.9611 10.3594 14.9564 10.3712C14.9516 10.383 14.9491 10.3957 14.9491 10.4085V11.6745H16.7576C16.83 11.6744 16.9014 11.6913 16.9664 11.7237C17.0314 11.7561 17.0884 11.8033 17.1329 11.8616C17.1775 11.92 17.2084 11.9879 17.2234 12.0604C17.2385 12.1328 17.2371 12.2077 17.2196 12.2795L16.6485 14.6168C16.6227 14.7222 16.5632 14.8157 16.4795 14.8825C16.3958 14.9493 16.2927 14.9856 16.1865 14.9855H14.9491V19.1731C14.9491 19.3022 14.899 19.4261 14.8097 19.5174C14.7205 19.6087 14.5994 19.66 14.4732 19.66H12.1888C12.0625 19.66 11.9415 19.6087 11.8522 19.5174C11.763 19.4261 11.7128 19.3022 11.7128 19.1731V14.9855H10.4754C10.3492 14.9855 10.2282 14.9342 10.1389 14.8429C10.0497 14.7516 9.99951 14.6278 9.99951 14.4986V12.1614C9.99951 12.0974 10.0118 12.0341 10.0357 11.975C10.0597 11.916 10.0947 11.8623 10.1389 11.8171C10.1831 11.7719 10.2356 11.736 10.2933 11.7115C10.351 11.6871 10.4129 11.6745 10.4754 11.6745H11.7128V10.4085C11.7129 9.50452 12.064 8.63765 12.6888 7.99852ZM15.0443 7.97385C14.4132 7.97385 13.8079 8.23035 13.3616 8.68693C12.9154 9.14351 12.6647 9.76276 12.6647 10.4085V12.1614C12.6647 12.2905 12.6145 12.4144 12.5253 12.5057C12.436 12.597 12.315 12.6483 12.1888 12.6483H10.9514V14.0117H12.1888C12.315 14.0117 12.436 14.063 12.5253 14.1543C12.6145 14.2456 12.6647 14.3695 12.6647 14.4986V18.6862H13.9973V14.4986C13.9973 14.3695 14.0474 14.2456 14.1367 14.1543C14.2259 14.063 14.347 14.0117 14.4732 14.0117H15.8146L16.1478 12.6483H14.4732C14.347 12.6483 14.2259 12.597 14.1367 12.5057C14.0474 12.4144 13.9973 12.2905 13.9973 12.1614V10.4085C13.9973 10.1244 14.1076 9.85188 14.3039 9.65099C14.5003 9.45009 14.7666 9.33723 15.0443 9.33723H16.2817V7.97385H15.0443Z" fill="white"/>
</svg>
