<svg width="27" height="27" viewBox="0 0 27 27" fill="none" xmlns="http://www.w3.org/2000/svg">
<circle cx="13.1463" cy="13.1463" r="12.7081" stroke="#BFA315" stroke-opacity="0.5" stroke-width="0.876404"/>
<path d="M13.1459 11.2468C12.0965 11.2468 11.2463 12.0973 11.2463 13.1464C11.2463 14.1958 12.0968 15.046 13.1459 15.046C14.1953 15.046 15.0455 14.1955 15.0455 13.1464C15.0455 12.097 14.1951 11.2468 13.1459 11.2468ZM13.1459 9.98043C14.8938 9.98043 16.3119 11.397 16.3119 13.1464C16.3119 14.8943 14.8954 16.3124 13.1459 16.3124C11.398 16.3124 9.97994 14.8959 9.97994 13.1464C9.97994 11.3985 11.3965 9.98043 13.1459 9.98043ZM17.2617 9.82159C17.2617 10.2586 16.9066 10.6131 16.4702 10.6131C16.0332 10.6131 15.6787 10.258 15.6787 9.82159C15.6787 9.38516 16.0337 9.03064 16.4702 9.03064C16.906 9.03009 17.2617 9.38516 17.2617 9.82159ZM13.1459 8.08084C11.5791 8.08084 11.3237 8.08499 10.595 8.11744C10.0985 8.14075 9.76564 8.20753 9.4564 8.32758C9.1816 8.43416 8.98336 8.56143 8.77215 8.77264C8.56012 8.98467 8.43308 9.18237 8.32693 9.4573C8.2066 9.76725 8.13984 10.0995 8.11695 10.5954C8.08419 11.2944 8.08036 11.5388 8.08036 13.1464C8.08036 14.7132 8.0845 14.9686 8.11695 15.6973C8.14027 16.1936 8.20713 16.5269 8.3269 16.8354C8.43375 17.1106 8.56128 17.3093 8.77148 17.5195C8.98434 17.7321 9.18263 17.8595 9.45495 17.9646C9.76795 18.0856 10.1006 18.1525 10.5949 18.1754C11.2939 18.2081 11.5383 18.212 13.1459 18.212C14.7128 18.212 14.9681 18.2078 15.6968 18.1754C16.192 18.1521 16.5256 18.0851 16.8349 17.9654C17.1094 17.8588 17.3087 17.7309 17.519 17.5208C17.7319 17.3076 17.8591 17.1098 17.9644 16.8369C18.085 16.525 18.152 16.1919 18.1749 15.6975C18.2076 14.9984 18.2115 14.754 18.2115 13.1464C18.2115 11.5796 18.2073 11.3242 18.1749 10.5955C18.1516 10.1001 18.0845 9.76609 17.9647 9.45689C17.8584 9.18284 17.7307 8.984 17.5197 8.77264C17.3073 8.56027 17.1101 8.43349 16.835 8.32742C16.5253 8.20719 16.1925 8.14034 15.6969 8.11745C14.9979 8.08467 14.7536 8.08084 13.1459 8.08084ZM13.1459 6.81445C14.8661 6.81445 15.0808 6.82079 15.7563 6.85244C16.4301 6.88358 16.8897 6.99016 17.2934 7.14688C17.7107 7.30782 18.0632 7.52521 18.4151 7.87716C18.7666 8.22912 18.984 8.58265 19.1455 8.99898C19.3016 9.40211 19.4082 9.86223 19.4399 10.5361C19.47 11.2115 19.4779 11.4262 19.4779 13.1464C19.4779 14.8666 19.4716 15.0813 19.4399 15.7568C19.4087 16.4306 19.3016 16.8902 19.1455 17.2938C18.9845 17.7112 18.7666 18.0637 18.4151 18.4157C18.0632 18.7671 17.7091 18.9845 17.2934 19.1459C16.8897 19.3021 16.4301 19.4087 15.7563 19.4404C15.0808 19.4704 14.8661 19.4784 13.1459 19.4784C11.4257 19.4784 11.211 19.472 10.5356 19.4404C9.86174 19.4092 9.40268 19.3021 8.99849 19.1459C8.58163 18.985 8.22862 18.7671 7.87668 18.4157C7.52473 18.0637 7.30786 17.7097 7.14639 17.2938C6.98968 16.8902 6.88362 16.4306 6.85196 15.7568C6.82188 15.0813 6.81396 14.8666 6.81396 13.1464C6.81396 11.4262 6.8203 11.2115 6.85196 10.5361C6.88308 9.86171 6.98968 9.40264 7.14639 8.99898C7.30733 8.58213 7.52473 8.22912 7.87668 7.87716C8.22862 7.52521 8.58216 7.30835 8.99849 7.14688C9.40215 6.99016 9.86122 6.8841 10.5356 6.85244C11.211 6.82237 11.4257 6.81445 13.1459 6.81445Z" fill="#BFA315"/>
</svg>
