<svg width="19" height="27" viewBox="0 0 19 27" fill="none" xmlns="http://www.w3.org/2000/svg">
<path d="M19 13.2998C18.9997 11.8084 18.6479 10.3381 17.9733 9.00797C17.2986 7.67787 16.3201 6.52545 15.1169 5.64411L14.3759 1.56154C14.2967 1.12354 14.0661 0.727279 13.7245 0.441893C13.3829 0.156508 12.952 0.000114785 12.5068 0H6.49342C6.04831 0.000114785 5.61735 0.156508 5.27576 0.441893C4.93417 0.727279 4.70361 1.12354 4.62433 1.56154L3.88334 5.64411C2.67987 6.52515 1.70107 7.67751 1.02635 9.00767C0.351626 10.3378 0 11.8083 0 13.2998C0 14.7913 0.351626 16.2618 1.02635 17.592C1.70107 18.9221 2.67987 20.0745 3.88334 20.9555L4.62433 25.0381C4.70361 25.4761 4.93417 25.8724 5.27576 26.1577C5.61735 26.4431 6.04831 26.5995 6.49342 26.5996H12.5068C12.952 26.5995 13.3829 26.4431 13.7245 26.1577C14.0661 25.8724 14.2967 25.4761 14.3759 25.0381L15.1169 20.9555C16.3201 20.0742 17.2986 18.9218 17.9733 17.5917C18.6479 16.2616 18.9997 14.7912 19 13.2998ZM6.49342 1.89997H12.5068L12.9711 4.459C10.7406 3.58029 8.25971 3.58029 6.02912 4.459L6.49342 1.89997ZM1.90024 13.2998C1.90024 11.7967 2.34596 10.3273 3.18105 9.07754C4.01614 7.82774 5.20308 6.85365 6.59178 6.27843C7.98048 5.70321 9.50856 5.55271 10.9828 5.84595C12.457 6.13919 13.8112 6.86301 14.8741 7.92588C15.9369 8.98874 16.6608 10.3429 16.954 11.8172C17.2472 13.2914 17.0967 14.8195 16.5215 16.2082C15.9463 17.5969 14.9722 18.7838 13.7224 19.6189C12.4726 20.454 11.0033 20.8997 9.50013 20.8997C7.48519 20.8975 5.55341 20.0961 4.12863 18.6713C2.70385 17.2465 1.90244 15.3148 1.90024 13.2998ZM12.5068 24.6997H6.49342L6.02912 22.1406C8.25971 23.0193 10.7406 23.0193 12.9711 22.1406L12.5068 24.6997ZM8.55015 13.2998V8.54988C8.55015 8.29793 8.65023 8.0563 8.82839 7.87814C9.00655 7.69998 9.24818 7.5999 9.50013 7.5999C9.75208 7.5999 9.99372 7.69998 10.1719 7.87814C10.35 8.0563 10.4501 8.29793 10.4501 8.54988V12.3498H14.2501C14.502 12.3498 14.7437 12.4499 14.9218 12.6281C15.1 12.8062 15.2001 13.0479 15.2001 13.2998C15.2001 13.5518 15.1 13.7934 14.9218 13.9716C14.7437 14.1497 14.502 14.2498 14.2501 14.2498H9.50013C9.24818 14.2498 9.00655 14.1497 8.82839 13.9716C8.65023 13.7934 8.55015 13.5518 8.55015 13.2998Z" fill="#FBD71F"/>
</svg>
