<svg width="25" height="25" viewBox="0 0 25 25" fill="none" xmlns="http://www.w3.org/2000/svg">
<path d="M6.80951 23.16L0.416016 24.5807L1.83679 18.1872C0.930089 16.4917 0.416016 14.5546 0.416016 12.4974C0.416016 5.82395 5.8259 0.414062 12.4993 0.414062C19.1727 0.414062 24.5827 5.82395 24.5827 12.4974C24.5827 19.1708 19.1727 24.5807 12.4993 24.5807C10.4422 24.5807 8.50508 24.0667 6.80951 23.16ZM7.15942 20.6065L7.9491 21.0288C9.33651 21.7707 10.8868 22.1641 12.4993 22.1641C17.8381 22.1641 22.166 17.8362 22.166 12.4974C22.166 7.15864 17.8381 2.83073 12.4993 2.83073C7.16059 2.83073 2.83268 7.15864 2.83268 12.4974C2.83268 14.1099 3.22598 15.6602 3.9679 17.0476L4.39018 17.8373L3.59896 21.3977L7.15942 20.6065ZM6.45768 12.4974H8.87435C8.87435 14.4995 10.4973 16.1224 12.4993 16.1224C14.5014 16.1224 16.1243 14.4995 16.1243 12.4974H18.541C18.541 15.8341 15.836 18.5391 12.4993 18.5391C9.16263 18.5391 6.45768 15.8341 6.45768 12.4974Z" fill="black"/>
</svg>
