<svg width="220" height="21" viewBox="0 0 220 21" fill="none" xmlns="http://www.w3.org/2000/svg">
<path d="M1.792 16.8628V5.94279H6.37C10.738 5.94279 12.586 8.37879 12.586 11.3328C12.586 14.5808 10.332 16.8628 6.524 16.8628H1.792ZM2.898 15.9528H6.622C9.59 15.9528 11.438 14.2308 11.438 11.4168C11.438 8.50479 9.492 6.85279 6.132 6.85279H2.898C2.898 9.80679 2.898 12.9988 2.898 15.9528ZM18.8695 17.1008C16.2515 17.1008 14.3755 15.4628 14.3755 13.0408C14.3755 10.6048 16.3075 8.91079 18.7995 8.91079C20.5215 8.91079 23.0975 9.72279 23.0975 12.7888V13.2508H15.4955C15.5235 15.0148 16.9235 16.2328 18.8975 16.2328C20.4655 16.2328 21.6415 15.4628 22.2855 14.2308L23.2235 14.5388C22.4955 16.2048 20.8295 17.1008 18.8695 17.1008ZM15.5375 12.2708H21.8515C21.8235 10.4228 20.0875 9.80679 18.8135 9.80679C17.1195 9.80679 15.7755 10.8988 15.5375 12.2708ZM28.3758 17.1008C26.5838 17.1008 25.0858 16.2328 24.5818 14.9308L25.5478 14.6508C26.0238 15.6308 27.2138 16.2888 28.3898 16.2888C29.1738 16.2888 30.5598 15.9668 30.5598 14.8888C30.5598 13.9788 29.4958 13.7268 28.5718 13.5168L27.6758 13.3068C26.8778 13.1248 25.0158 12.6488 25.0158 11.0668C25.0158 9.59679 26.6538 8.91079 28.0398 8.91079C29.6078 8.91079 30.8818 9.75079 31.3018 10.8008L30.3078 11.1088C29.9998 10.3808 29.1598 9.72279 27.9278 9.72279C26.8638 9.72279 26.0658 10.2128 26.0658 10.9828C26.0658 11.9628 27.3538 12.3128 28.2498 12.5368L29.1458 12.7468C30.0278 12.9428 31.6518 13.3208 31.6518 14.7628C31.6518 16.0788 30.3078 17.1008 28.3758 17.1008ZM33.8326 16.8628V9.13479H34.8546V16.8628H33.8326ZM33.4546 6.37679C33.4546 5.95679 33.8466 5.60679 34.3646 5.60679C34.8546 5.60679 35.2466 5.95679 35.2466 6.37679C35.2466 6.82479 34.8546 7.17479 34.3646 7.17479C33.8466 7.17479 33.4546 6.82479 33.4546 6.37679ZM41.8269 20.1668C39.8949 20.1668 38.3829 19.5648 37.6689 17.9128L38.6209 17.6048C39.0549 18.6548 40.0489 19.3408 41.8409 19.3408C43.4649 19.3408 45.0609 18.6268 45.0609 16.0228V15.0708H45.0189C44.2769 16.2608 42.9469 16.8488 41.4629 16.8488C38.9709 16.8488 37.1649 15.1128 37.1649 12.8588C37.1649 10.5488 39.0549 8.91079 41.4769 8.91079C42.9469 8.91079 44.3049 9.54079 45.0609 10.7308H45.0889V9.13479H46.0829V15.9108C46.0829 19.0748 44.2909 20.1668 41.8269 20.1668ZM38.2569 12.8588C38.2569 14.6088 39.7129 15.9808 41.6029 15.9808C43.4929 15.9808 45.0749 14.6368 45.0749 12.8448C45.0749 11.0528 43.4929 9.77879 41.6029 9.77879C39.6709 9.77879 38.2569 11.1228 38.2569 12.8588ZM49.1315 16.8628V9.13479H50.1255V10.6188H50.1535C50.8955 9.41479 52.1275 8.91079 53.4575 8.91079C55.0955 8.91079 56.8455 9.68079 56.8455 12.0188V16.8628H55.8235V12.4388C55.8235 10.5068 54.5495 9.77879 53.2055 9.77879C51.2455 9.77879 50.1535 11.1788 50.1535 12.5508V16.8628H49.1315ZM63.5765 17.1008C60.9585 17.1008 59.0825 15.4628 59.0825 13.0408C59.0825 10.6048 61.0145 8.91079 63.5065 8.91079C65.2285 8.91079 67.8045 9.72279 67.8045 12.7888V13.2508H60.2025C60.2305 15.0148 61.6305 16.2328 63.6045 16.2328C65.1725 16.2328 66.3485 15.4628 66.9925 14.2308L67.9305 14.5388C67.2025 16.2048 65.5365 17.1008 63.5765 17.1008ZM60.2445 12.2708H66.5585C66.5305 10.4228 64.7945 9.80679 63.5205 9.80679C61.8265 9.80679 60.4825 10.8988 60.2445 12.2708ZM73.8248 17.1008C71.3468 17.1008 69.5128 15.4068 69.5128 13.0128C69.5128 10.5488 71.4168 8.91079 73.8388 8.91079C75.3088 8.91079 76.6108 9.52679 77.3668 10.6748H77.4088V5.66279H78.4308V14.4408C78.4308 15.7148 78.5428 16.2608 78.7248 16.8628H77.6888C77.5208 16.2888 77.4508 15.8828 77.4648 15.3088H77.4228C76.6668 16.4848 75.3088 17.1008 73.8248 17.1008ZM70.6048 13.0128C70.6048 14.8748 72.0468 16.2328 73.9508 16.2328C75.8408 16.2328 77.4228 14.9028 77.4228 12.9988C77.4228 11.0808 75.8408 9.77879 73.9508 9.77879C72.0188 9.77879 70.6048 11.1508 70.6048 13.0128ZM90.5562 17.1008C89.0162 17.1008 87.6862 16.4428 86.9582 15.2948H86.9302V16.8628H85.9362V5.66279H86.9582V10.7308C87.7562 9.49879 89.1002 8.91079 90.5842 8.91079C93.0202 8.91079 94.8682 10.6188 94.8682 12.9988C94.8682 15.4488 92.9642 17.1008 90.5562 17.1008ZM86.9582 13.0128C86.9582 14.9308 88.5402 16.2328 90.4022 16.2328C92.3482 16.2328 93.7622 14.8608 93.7622 12.9988C93.7622 11.1368 92.3202 9.77879 90.4022 9.77879C88.5262 9.77879 86.9582 11.1088 86.9582 13.0128ZM98.1847 19.9428L99.5987 16.9748L95.8327 9.13479H96.9527C98.0167 11.3048 99.0247 13.4888 100.103 15.7428H100.131C101.181 13.5028 102.189 11.2908 103.239 9.13479H104.359L99.1367 19.9428H98.1847Z" fill="white" fill-opacity="0.7"/>
<path d="M148.53 17.131C147.906 17.131 147.326 17.023 146.79 16.807C146.254 16.583 145.782 16.275 145.374 15.883C144.974 15.483 144.658 15.023 144.426 14.503C144.202 13.975 144.09 13.407 144.09 12.799C144.09 12.191 144.202 11.627 144.426 11.107C144.658 10.579 144.974 10.119 145.374 9.72702C145.782 9.32702 146.254 9.01902 146.79 8.80302C147.326 8.57902 147.906 8.46702 148.53 8.46702C149.154 8.46702 149.734 8.57902 150.27 8.80302C150.814 9.01902 151.286 9.32702 151.686 9.72702C152.094 10.119 152.41 10.579 152.634 11.107C152.858 11.627 152.97 12.191 152.97 12.799C152.97 13.407 152.858 13.975 152.634 14.503C152.41 15.023 152.094 15.483 151.686 15.883C151.286 16.275 150.814 16.583 150.27 16.807C149.734 17.023 149.154 17.131 148.53 17.131ZM148.53 15.535C148.914 15.535 149.266 15.467 149.586 15.331C149.906 15.187 150.186 14.995 150.426 14.755C150.666 14.507 150.854 14.215 150.99 13.879C151.126 13.543 151.194 13.183 151.194 12.799C151.194 12.407 151.126 12.047 150.99 11.719C150.854 11.383 150.666 11.095 150.426 10.855C150.186 10.607 149.906 10.415 149.586 10.279C149.266 10.135 148.914 10.063 148.53 10.063C148.154 10.063 147.806 10.135 147.486 10.279C147.166 10.415 146.886 10.607 146.646 10.855C146.406 11.095 146.218 11.383 146.082 11.719C145.946 12.047 145.878 12.403 145.878 12.787C145.878 13.179 145.946 13.543 146.082 13.879C146.218 14.215 146.406 14.507 146.646 14.755C146.886 14.995 147.166 15.187 147.486 15.331C147.806 15.467 148.154 15.535 148.53 15.535ZM154.176 16.999V8.59902H158.388C158.94 8.59902 159.424 8.71102 159.84 8.93502C160.264 9.15902 160.596 9.47102 160.836 9.87102C161.076 10.263 161.196 10.719 161.196 11.239C161.196 11.735 161.076 12.179 160.836 12.571C160.596 12.963 160.264 13.271 159.84 13.495C159.416 13.719 158.932 13.831 158.388 13.831H155.916V16.999H154.176ZM155.916 12.391H158.196C158.572 12.391 158.872 12.287 159.096 12.079C159.328 11.871 159.444 11.595 159.444 11.251C159.444 10.899 159.328 10.619 159.096 10.411C158.872 10.203 158.572 10.099 158.196 10.099H155.916V12.391ZM166.46 17.131C165.836 17.131 165.256 17.023 164.72 16.807C164.184 16.583 163.712 16.275 163.304 15.883C162.904 15.483 162.588 15.023 162.356 14.503C162.132 13.975 162.02 13.407 162.02 12.799C162.02 12.191 162.132 11.627 162.356 11.107C162.588 10.579 162.904 10.119 163.304 9.72702C163.712 9.32702 164.184 9.01902 164.72 8.80302C165.256 8.57902 165.836 8.46702 166.46 8.46702C167.084 8.46702 167.664 8.57902 168.2 8.80302C168.744 9.01902 169.216 9.32702 169.616 9.72702C170.024 10.119 170.34 10.579 170.564 11.107C170.788 11.627 170.9 12.191 170.9 12.799C170.9 13.407 170.788 13.975 170.564 14.503C170.34 15.023 170.024 15.483 169.616 15.883C169.216 16.275 168.744 16.583 168.2 16.807C167.664 17.023 167.084 17.131 166.46 17.131ZM166.46 15.535C166.844 15.535 167.196 15.467 167.516 15.331C167.836 15.187 168.116 14.995 168.356 14.755C168.596 14.507 168.784 14.215 168.92 13.879C169.056 13.543 169.124 13.183 169.124 12.799C169.124 12.407 169.056 12.047 168.92 11.719C168.784 11.383 168.596 11.095 168.356 10.855C168.116 10.607 167.836 10.415 167.516 10.279C167.196 10.135 166.844 10.063 166.46 10.063C166.084 10.063 165.736 10.135 165.416 10.279C165.096 10.415 164.816 10.607 164.576 10.855C164.336 11.095 164.148 11.383 164.012 11.719C163.876 12.047 163.808 12.403 163.808 12.787C163.808 13.179 163.876 13.543 164.012 13.879C164.148 14.215 164.336 14.507 164.576 14.755C164.816 14.995 165.096 15.187 165.416 15.331C165.736 15.467 166.084 15.535 166.46 15.535ZM172.106 16.999V8.59902H176.318C176.87 8.59902 177.354 8.71102 177.77 8.93502C178.194 9.15902 178.526 9.47102 178.766 9.87102C179.006 10.263 179.126 10.719 179.126 11.239C179.126 11.735 179.006 12.179 178.766 12.571C178.526 12.963 178.194 13.271 177.77 13.495C177.346 13.719 176.862 13.831 176.318 13.831H173.846V16.999H172.106ZM173.846 12.391H176.126C176.502 12.391 176.802 12.287 177.026 12.079C177.258 11.871 177.374 11.595 177.374 11.251C177.374 10.899 177.258 10.619 177.026 10.411C176.802 10.203 176.502 10.099 176.126 10.099H173.846V12.391ZM182.928 16.999V8.59902H183.792L186.924 15.211L190.044 8.59902H190.908V16.999H190.356V9.12702L186.924 16.399L183.48 9.15102V16.999H182.928ZM192.9 16.999V8.59902H198.708V9.11502H193.452V12.499H196.884V13.015H193.452V16.483H198.756V16.999H192.9ZM200.671 16.483H202.759C203.295 16.483 203.791 16.391 204.247 16.207C204.711 16.023 205.111 15.767 205.447 15.439C205.791 15.103 206.059 14.711 206.251 14.263C206.443 13.815 206.539 13.327 206.539 12.799C206.539 12.271 206.443 11.783 206.251 11.335C206.059 10.887 205.791 10.499 205.447 10.171C205.111 9.83502 204.711 9.57502 204.247 9.39102C203.791 9.20702 203.295 9.11502 202.759 9.11502H200.671V16.483ZM200.119 16.999V8.59902H202.687C203.351 8.59902 203.951 8.70702 204.487 8.92302C205.031 9.13102 205.499 9.42302 205.891 9.79902C206.283 10.175 206.583 10.619 206.791 11.131C206.999 11.643 207.103 12.199 207.103 12.799C207.103 13.399 206.999 13.955 206.791 14.467C206.583 14.979 206.283 15.423 205.891 15.799C205.499 16.175 205.031 16.471 204.487 16.687C203.951 16.895 203.351 16.999 202.687 16.999H200.119ZM208.674 16.999V8.59902H209.226V16.999H208.674ZM210.317 16.999L213.821 8.59902H214.505L217.997 16.999H217.397L216.233 14.155H212.069L210.893 16.999H210.317ZM212.273 13.663H216.029L214.157 9.11502L212.273 13.663Z" fill="#B2B2B2"/>
<path d="M131.003 2.97461C130.3 2.97461 127.51 3.25651 126.406 4.84756C126.081 5.31102 130.797 5.08168 129.97 5.61203C128.972 6.25228 126.626 7.29387 124.481 7.07408C124.189 7.04541 123.86 7.05019 123.611 7.22698C123.41 7.37032 123.32 7.59966 123.286 7.83378C123.2 8.48835 123.463 9.19071 123.687 9.79273C123.989 10.6002 124.361 11.3742 124.653 12.1865C124.677 12.2534 124.7 12.3203 124.7 12.3919C124.7 12.4636 124.672 12.5353 124.614 12.5735C124.519 12.6308 124.399 12.5783 124.304 12.5209C123.926 12.2916 123.592 11.9954 123.238 11.723C123.042 11.5701 122.842 11.4268 122.622 11.3073C122.45 11.2118 122.149 11.0063 121.958 11.1353C121.853 11.207 121.829 11.3551 121.824 11.4841C121.772 12.4684 121.915 13.4622 122.235 14.3939C122.498 15.1679 122.875 15.8989 123.339 16.5679C123.807 17.2463 124.366 17.8579 124.992 18.3978C125.618 18.9377 126.315 19.4012 127.056 19.7691C127.797 20.137 128.59 20.4093 129.402 20.567C129.932 20.6673 130.472 20.7247 131.012 20.7247C135.914 20.7247 139.885 16.7542 139.885 11.852C139.885 6.94986 135.905 2.97461 131.003 2.97461ZM131.003 16.6204C128.365 16.6204 126.229 14.4847 126.229 11.8472C126.229 9.20982 128.365 7.07408 131.003 7.07408C133.64 7.07408 135.776 9.20982 135.776 11.8472C135.776 14.4847 133.64 16.6204 131.003 16.6204Z" fill="#B2B2B2"/>
<path d="M122.273 4.87596C122.755 4.87596 123.152 4.48417 123.152 3.99682C123.152 3.51424 122.76 3.11768 122.273 3.11768C121.785 3.11768 121.398 3.51424 121.398 3.99682C121.398 4.47939 121.79 4.87596 122.273 4.87596Z" fill="#B2B2B2"/>
<path d="M122.42 7.96313C122.42 7.55223 122.086 7.21777 121.675 7.21777C121.264 7.21777 120.93 7.55223 120.93 7.96313C120.93 8.37403 121.264 8.70849 121.675 8.70849C122.086 8.70849 122.42 8.37403 122.42 7.96313Z" fill="#B2B2B2"/>
<path d="M125.56 1.89005C125.842 1.89005 126.076 1.66071 126.076 1.37403C126.076 1.08736 125.842 0.862793 125.56 0.862793C125.278 0.862793 125.044 1.09213 125.044 1.37881C125.044 1.66549 125.273 1.89005 125.56 1.89005Z" fill="#B2B2B2"/>
<path d="M120.433 10.5046C120.634 10.5046 120.797 10.342 120.797 10.1414C120.797 9.9409 120.634 9.77832 120.433 9.77832C120.233 9.77832 120.07 9.9409 120.07 10.1414C120.07 10.342 120.233 10.5046 120.433 10.5046Z" fill="#B2B2B2"/>
<path d="M119.621 4.36523C119.277 4.36523 119 4.64236 119 4.98637C119 5.33038 119.277 5.6075 119.621 5.6075C119.965 5.6075 120.242 5.33038 120.242 4.98637C120.242 4.64236 119.96 4.36523 119.621 4.36523Z" fill="#B2B2B2"/>
<path d="M125.56 5.10104C125.763 5.10104 125.928 4.93632 125.928 4.73314C125.928 4.52995 125.763 4.36523 125.56 4.36523C125.357 4.36523 125.192 4.52995 125.192 4.73314C125.192 4.93632 125.357 5.10104 125.56 5.10104Z" fill="#B2B2B2"/>
<path d="M133.053 12.6779C133.512 11.5686 132.985 10.2969 131.876 9.83739C130.767 9.3779 129.495 9.90466 129.036 11.0139C128.576 12.1232 129.103 13.3949 130.212 13.8544C131.321 14.3139 132.593 13.7872 133.053 12.6779Z" fill="#B2B2B2"/>
</svg>
