<svg width="27" height="27" viewBox="0 0 27 27" fill="none" xmlns="http://www.w3.org/2000/svg">
<circle cx="13.4385" cy="13.4385" r="12.7078" stroke="#BFA315" stroke-opacity="0.5" stroke-width="0.876404"/>
<path d="M11.8188 12.6529C12.4117 13.6956 13.2787 14.5626 14.3214 15.1555L14.8815 14.3714C15.0677 14.1108 15.4192 14.0302 15.7003 14.1838C16.5911 14.6704 17.5756 14.9661 18.6025 15.0474C18.9318 15.0735 19.1857 15.3483 19.1857 15.6787V18.5045C19.1857 18.8292 18.9402 19.1012 18.6172 19.1344C18.2817 19.1689 17.9432 19.1862 17.6027 19.1862C12.1823 19.1862 7.78809 14.792 7.78809 9.37158C7.78809 9.03109 7.80545 8.6926 7.83994 8.35704C7.87313 8.0341 8.14517 7.78857 8.46982 7.78857H11.2957C11.626 7.78857 11.9008 8.04251 11.9269 8.37181C12.0082 9.39873 12.3039 10.3832 12.7905 11.274C12.9441 11.5551 12.8635 11.9066 12.6029 12.0928L11.8188 12.6529ZM10.2223 12.2369L11.4253 11.3776C11.0842 10.6412 10.8504 9.86031 10.7308 9.05498H9.06023C9.05641 9.16029 9.05449 9.26584 9.05449 9.37158C9.05449 14.0926 12.8817 17.9198 17.6027 17.9198C17.7085 17.9198 17.814 17.9179 17.9193 17.9141V16.2435C17.114 16.1239 16.3331 15.8901 15.5967 15.549L14.7374 16.7521C14.3897 16.617 14.054 16.4581 13.7322 16.2774L13.6954 16.2564C12.4546 15.5508 11.4235 14.5197 10.7179 13.2789L10.697 13.2421C10.5162 12.9203 10.3573 12.5846 10.2223 12.2369Z" fill="#BFA315"/>
</svg>
