<svg width="27" height="27" viewBox="0 0 27 27" fill="none" xmlns="http://www.w3.org/2000/svg">
<circle cx="13.7305" cy="13.4385" r="12.7078" stroke="#BFA315" stroke-opacity="0.5" stroke-width="0.876404"/>
<path d="M12.959 16.1916C10.4925 15.8986 8.58398 13.8948 8.58398 11.4665C8.58398 8.83657 10.8226 6.70459 13.584 6.70459C16.3454 6.70459 18.584 8.83657 18.584 11.4665C18.584 13.8948 16.6754 15.8986 14.209 16.1916V18.0141H12.959V16.1916ZM13.584 15.0379C15.655 15.0379 17.334 13.4389 17.334 11.4665C17.334 9.49405 15.655 7.89507 13.584 7.89507C11.5129 7.89507 9.83398 9.49405 9.83398 11.4665C9.83398 13.4389 11.5129 15.0379 13.584 15.0379ZM9.20898 18.6094H17.959V19.7998H9.20898V18.6094Z" fill="#BFA315"/>
</svg>
