<svg width="32" height="32" viewBox="0 0 32 32" fill="none" xmlns="http://www.w3.org/2000/svg">
<circle cx="16" cy="16" r="16" fill="white"/>
<circle cx="16" cy="16" r="15.2" stroke="#BFA315" stroke-opacity="0.4" stroke-width="1.6"/>
<path d="M15.9993 24.3346C11.397 24.3346 7.66602 20.6036 7.66602 16.0013C7.66602 11.3989 11.397 7.66797 15.9993 7.66797C20.6017 7.66797 24.3327 11.3989 24.3327 16.0013C24.3327 20.6036 20.6017 24.3346 15.9993 24.3346ZM15.9993 22.668C19.6813 22.668 22.666 19.6832 22.666 16.0013C22.666 12.3194 19.6813 9.33464 15.9993 9.33464C12.3174 9.33464 9.33268 12.3194 9.33268 16.0013C9.33268 19.6832 12.3174 22.668 15.9993 22.668ZM11.8327 16.0013H13.4993C13.4993 17.3821 14.6186 18.5013 15.9993 18.5013C17.3801 18.5013 18.4993 17.3821 18.4993 16.0013H20.166C20.166 18.3025 18.3005 20.168 15.9993 20.168C13.6982 20.168 11.8327 18.3025 11.8327 16.0013Z" fill="#BFA315"/>
</svg>
