<svg width="32" height="32" viewBox="0 0 32 32" fill="none" xmlns="http://www.w3.org/2000/svg">
<circle cx="16" cy="16" r="16" fill="white"/>
<circle cx="16" cy="16" r="15.2" stroke="#BFA315" stroke-opacity="0.4" stroke-width="1.6"/>
<path d="M13.8046 14.9018C14.585 16.274 15.726 17.415 17.0982 18.1953L17.8353 17.1634C18.0804 16.8204 18.543 16.7144 18.913 16.9165C20.0853 17.5569 21.3809 17.9461 22.7324 18.0531C23.1658 18.0874 23.5 18.4491 23.5 18.8838V22.6028C23.5 23.0301 23.1768 23.3881 22.7518 23.4318C22.3102 23.4772 21.8647 23.5 21.4167 23.5C14.283 23.5 8.5 17.717 8.5 10.5833C8.5 10.1352 8.52285 9.68976 8.56824 9.24813C8.61192 8.82312 8.96995 8.5 9.39721 8.5H13.1162C13.5509 8.5 13.9126 8.8342 13.9469 9.26757C14.0539 10.6191 14.4431 11.9147 15.0835 13.087C15.2856 13.457 15.1796 13.9196 14.8366 14.1646L13.8046 14.9018ZM11.7035 14.3543L13.2868 13.2234C12.8379 12.2543 12.5302 11.2265 12.3727 10.1667H10.1742C10.1692 10.3053 10.1667 10.4442 10.1667 10.5833C10.1667 16.7965 15.2035 21.8333 21.4167 21.8333C21.5558 21.8333 21.6947 21.8308 21.8333 21.8257V19.6272C20.7735 19.4697 19.7457 19.1621 18.7766 18.7132L17.6457 20.2965C17.1882 20.1187 16.7463 19.9096 16.3228 19.6717L16.2744 19.6442C14.6414 18.7156 13.2844 17.3586 12.3558 15.7256L12.3283 15.6772C12.0904 15.2537 11.8813 14.8118 11.7035 14.3543Z" fill="#BFA315"/>
</svg>
